<?xml version="1.0" encoding="UTF-8"?>
<svg id="Calque_1" data-name="Calque 1" xmlns="http://www.w3.org/2000/svg" viewBox="0 0 184.76 504.48">
  <defs>
    <style>
      .cls-1 {
        fill: #4259a5;
        stroke-width: 0px;
      }
    </style>
  </defs>
  <g>
    <path class="cls-1" d="M18.58,504.48c-.63-.15-1.25-.29-1.88-.44-7.7-1.83-11.79-10.09-8.49-17.32,3.93-8.61,7.93-17.19,11.9-25.78,14.22-30.77,28.43-61.54,42.66-92.31,12.69-27.45,25.4-54.9,38.09-82.36,12.41-26.83,24.81-53.66,37.21-80.49,7.67-16.59,15.32-33.18,22.99-49.76,2.38-5.15,7.2-7.78,12.98-7.11,5.32.61,9.61,4.68,10.59,10.11.15.81.13,1.65.13,2.47,0,110.06,0,220.13,0,330.19,0,6.63-4.32,11.59-10.9,12.56-.23.03-.45.15-.67.23H18.58Z"/>
    <path class="cls-1" d="M.03,211.63c0-31.55,0-63.1,0-94.65,0-5.95,3.68-10.76,9.34-12.22.89-.23,1.83-.35,2.75-.35,35.2-.02,70.41-.02,105.61,0,6.47,0,11.92,5.54,12.03,12.02.04,2.49-.6,4.74-1.79,6.9-14.14,25.54-28.27,51.09-42.41,76.64-13.7,24.76-27.41,49.53-41.11,74.29-6.9,12.47-13.82,24.94-20.68,37.43-1.81,3.29-4.25,5.75-7.95,6.73C8.23,320.43-.02,315.07,0,306.27c.07-31.55.03-63.1.03-94.65Z"/>
  </g>
  <g>
    <path class="cls-1" d="M83.16,47.97c6.96,0,13.91,0,20.87,0,2.23,0,3.65,1.02,4.25,3.02.56,1.89-.1,3.66-1.88,4.81-13.4,8.69-26.81,17.37-40.22,26.04-2.91,1.88-6.14,2.71-9.59,2.7-7.65,0-15.29.01-22.94,0-2.67,0-4.15-1.24-4.58-3.79-.23-1.36.37-2.47,1.22-3.48,4.9-5.83,9.79-11.66,14.68-17.5,1.62-1.93,3.2-3.89,4.87-5.77,3.47-3.91,7.82-6,13.07-6.03,6.75-.03,13.5,0,20.25,0Z"/>
    <path class="cls-1" d="M131.23,84.56c-7.2,0-14.39,0-21.59,0-1.04,0-2.06-.05-2.92-.78-1.58-1.35-1.71-3.52-.27-5.24,5.42-6.47,10.85-12.93,16.27-19.4,2.12-2.53,4.24-5.08,6.37-7.6,1.75-2.07,4.22-2.03,5.89.11,7.01,8.99,14.01,17.99,21.02,26.98.92,1.18,1.25,2.43.6,3.84-.56,1.22-1.48,2-2.86,2.03-2.51.05-5.03.05-7.54.05-4.99,0-9.99,0-14.98,0Z"/>
  </g>
  <rect class="cls-1" x="83.38" width="22.08" height="28.12" rx="6.99" ry="6.99"/>
</svg>